# xmcd CD database file
#
# Track frame offsets:
#	150
#	16425
#	41722
#	74719
#	100389
#	119121
#	146207
#
# Disc length: 2311 seconds
#
# Revision: 0
# Processed by: cddbd v1.5.2PL0 Copyright (c) Steve Scherf et al.
# Submitted via: CDex 1.70beta2
#
DISCID=72090507
DTITLE=Willy Michl - die Antwort A
DYEAR=1982
DGENRE=Blues
TTITLE0=Intro azuro tinto
TTITLE1=Uns geht´s gut
TTITLE2=Chaos der Welt
TTITLE3=Stoned
TTITLE4=Bella Signorina
TTITLE5=Nordische Mädchen
TTITLE6=Geh mit mir
EXTD=YEAR: 1982
EXTT0=
EXTT1=
EXTT2=
EXTT3=
EXTT4=
EXTT5=
EXTT6=
PLAYORDER=
